<?xml version="1.0" encoding="UTF-8" standalone="no"?>
<svg style="enable-background:new 0 0 612 612" xmlns="http://www.w3.org/2000/svg" xml:space="preserve" viewBox="0 0 612 612" height="512px" width="512px" version="1.1" y="0px" x="0px" xmlns:xlink="http://www.w3.org/1999/xlink">
		<path d="m504 349c0-5.71-2.24-9.79-6.73-12.2l-66.7-31.8c7.75-4.9 14-11.8 18.7-20.8 4.69-8.98 7.04-19.2 7.04-30.6 0-15.9-4.79-29.6-14.4-41-9.59-11.4-21.3-17.1-35.2-17.1-4.9 0-9.49 0.816-13.8 2.45-4.28 1.63-8.26 3.67-11.9 6.12 4.49 12.2 6.73 24.7 6.73 37.3 0 20-5.31 38.1-15.9 54.5 2.04 2.04 3.98 3.88 5.81 5.51 1.84 1.63 3.77 3.06 5.81 4.28l43.5 20.2c6.12 3.26 11 7.85 14.7 13.8s5.51 12.5 5.51 19.9v56.3h45.9c3.26 0 5.92-1.33 7.96-3.98s3.06-5.81 3.06-9.48l-2-52zm-78 11c0-7.35-2.86-12.2-8.57-14.7l-58.1-28.2-24.5-11.6c5.31-3.26 10.1-7.45 14.4-12.5 4.28-5.1 7.85-10.9 10.7-17.4 2.04-4.9 3.77-10.2 5.2-15.9 1.43-5.71 2.14-11.6 2.14-17.7 0-3.26-0.204-6.43-0.612-9.49s-1.02-6.22-1.84-9.49c-3.67-15.5-10.9-28.2-21.7-37.9-10.8-9.79-23.4-14.7-37.6-14.7s-26.7 4.79-37.3 14.4-17.7 21.7-21.4 36.4c-2.04 7.34-3.06 14.3-3.06 20.8 0 12.2 2.65 24.1 7.96 35.5 6.12 12.2 14.5 21.8 25.1 28.8l-23.3 11-60 27.5c-6.12 2.86-9.18 7.96-9.18 15.3v66.1c0 4.49 1.33 8.26 3.98 11.3s6.02 4.59 10.1 4.59h214c3.67 0 6.83-1.53 9.48-4.59s3.98-6.83 3.98-11.3v-9.79l2-55zm-262 0c0-7.35 1.84-14 5.51-19.9s8.57-10.5 14.7-13.8l45.3-20.8c4.08-2.45 7.34-5.3 9.79-8.57-5.3-7.75-9.38-16.3-12.2-25.7s-4.28-19.2-4.28-29.4c0-6.94 0.714-13.6 2.14-19.9 1.43-6.32 3.16-12.3 5.2-18.1-7.34-5.3-15.5-7.96-24.5-7.96-13.9 0-25.6 5.71-35.2 17.1-9.59 11.4-14.4 25.1-14.4 41 0 11.4 2.45 21.7 7.34 30.9s11.4 16.2 19.6 21.1l-67.9 31.2c-4.49 2.04-6.73 6.12-6.73 12.2v53.2c0 3.67 1.02 6.83 3.06 9.48s4.69 3.98 7.96 3.98h44.7l-1-54zm142-360c42 0 81.7 8.06 119 24.2s69.8 37.9 97.3 65.5 49.4 60 65.5 97.3 24 77 24 119c0 28.2-3.67 55.3-11 81.4-7.35 26.1-17.6 50.5-30.9 73.1s-29.2 43.2-47.7 61.8c-18.6 18.6-39.2 34.5-61.8 47.7-22.6 13.3-47 23.6-73.1 30.9-26 7-53 11-81 11s-55.3-3.67-81.4-11c-26.1-7.35-50.5-17.6-73.1-30.9s-43.2-29.2-61.8-47.7c-18.6-18.6-34.5-39.2-47.7-61.8-13.3-22.6-23.6-47-30.9-73.1-7.93-26-11.6-53-11.6-81s3.67-55.3 11-81.4 17.6-50.5 30.9-73.1 29.2-43.2 47.7-61.8 39.2-34.5 61.8-47.7 47-23.6 73.1-30.9 54-11.6 82-11.6z" fill="#fff"/>
</svg>
