<?xml version="1.0" encoding="UTF-8" standalone="no"?>
<svg style="enable-background:new 0 0 57.702 57.702" xmlns="http://www.w3.org/2000/svg" xml:space="preserve" viewBox="0 0 57.702 57.702" version="1.1" y="0px" x="0px" xmlns:xlink="http://www.w3.org/1999/xlink">
<path d="m24.9 36.9h21c0.339 0 0.669 0.036 0.99 0.101 0.001-0.034 0.01-0.066 0.01-0.101 0-2.2-1.8-4-4-4h-15c-2.2 0-4 1.8-4 4 0 0.034 0.009 0.066 0.01 0.101 0.3-0.1 0.6-0.1 1-0.1z" fill="#38454F"/>
<path d="m50.7 40.9c-0.467-2.28-2.49-4-4.9-4h-21c-2.41 0-4.43 1.72-4.9 4h30.8z" fill="#283238"/>
	<path d="m38.4 32.9l3.29-10c-1.74-0.102-3.37-0.625-4.78-1.47l-3.7 11.5h5.2z" fill="#E0E1E2"/>
<path d="m56.9 48.9h-56.1c-0.512-0.036-0.901-0.495-0.817-1l1.29-3.72c0.315-1.89 1.95-3.28 3.87-3.28h47.4c1.92 0 3.56 1.39 3.87 3.28l1.29 3.72c0.1 0.5-0.3 0.9-0.8 1z" fill="#E7ECED"/>
<path d="m11.9 36.9h-2c-2.2 0-4 1.8-4 4h10c0-2.2-1.8-4-4-4z" fill="#DD352E"/>
<path d="m28 55.9h-2c0-1.1-0.897-2-2-2h-10c-2.42 0-4.44-1.72-4.9-4h-0.1v-4h2v3c0 1.65 1.35 3 3 3h10c2.2 0 4 1.7 4 4z" fill="#546A79"/>
<circle cx="42.4" r="10.5" cy="12.4" fill="#ED8A19"/>
<path d="m37 12.9c-0.552 0-1-0.447-1-1 0-3.31 2.69-6 6-6 0.552 0 1 0.447 1 1s-0.448 1-1 1c-2.21 0-4 1.79-4 4 0 0.5-0.5 1-1 1z" fill="#EBBA16"/>
</svg>
