<?xml version="1.0" encoding="UTF-8" standalone="no"?>
<svg style="enable-background:new 0 0 218.332 218.332" xmlns="http://www.w3.org/2000/svg" xml:space="preserve" viewBox="0 0 218.332 218.332" version="1.1" y="0px" x="0px" xmlns:xlink="http://www.w3.org/1999/xlink">
	<g id="group-50svg">
		<path id="path-1_114_" fill="#2476FF" d="m175 43.2c36.9 36.5 36.9 96 0 133-36.9 36.5-96.9 36.5-134 0-2.79-2.76-5.53-5.92-8.4-9.68-0.921-1.21-1.1-2.81-0.469-4.18 0.635-1.37 1.97-2.28 3.49-2.39 20.9-1.4 40.4-10.2 55.1-24.8 30.3-30 33.6-78.2 7.66-112-0.928-1.2-1.1-2.81-0.475-4.18 0.63-1.38 1.97-2.3 3.49-2.4 28-2.2 55 7.7 74 26.8z"/>
		<path id="path-2_114_" opacity=".25" style="enable-background:new" fill="#020403" d="m175 43.2c-3.01-2.98-6.22-5.71-9.57-8.24 31.9 36.8 30.3 92.5-4.85 127-25.7 25.5-64.8 39.8-97.3 29.7 12.7 7.42 29.7 9.95 35.3 10.7 27.3 2.73 55.6-6.23 76.5-26.9 38-37 38-96.2 1-133z"/>
		<path id="path-3_114_" opacity=".35" style="enable-background:new" fill="#020403" d="m200 133c0.91-3.43 1.64-6.89 2.16-10.4h-31.4c-5.03 0-9.11-2.32-9.11-5.19s4.08-5.19 9.11-5.19h1.22c5.03 0 9.11-2.32 9.11-5.19s-4.08-5.19-9.11-5.19h-60.1c-1.38 3.99-3.14 7.86-5.12 11.6 1.96 0.952 3.22 2.35 3.22 3.93 0 2.79-3.86 5.04-8.7 5.17-2.55 3.66-5.46 7.12-8.64 10.4h108z"/>
		<path id="path-4_113_" fill="#FBB713" d="m92 148c7.85 0 14.2-1.36 14.2-3.03s-6.37-3.03-14.2-3.03h-43.4c-7.85 0-14.2 1.36-14.2 3.03s6.36 3.03 14.2 3.03h43.6z"/>
		<path id="path-5_113_" fill="#2476FF" d="m57.4 31.7c3.29 0 5.95-0.778 5.95-1.74 0-0.958-2.66-1.73-5.95-1.73h-18.3c-3.29 0-5.95 0.776-5.95 1.73 0 0.957 2.66 1.74 5.95 1.74h18.2z"/>
		<path id="path-6_112_" fill="#FF3A2F" d="m123 61h13.3c2.56 0 4.64 1.01 4.64 2.26 0 1.24-2.08 2.26-4.64 2.26h-0.618c-2.56 0-4.64 1.01-4.64 2.26s2.08 2.26 4.64 2.26h28.6c2.56 0 4.64 1.01 4.64 2.26s-2.08 2.26-4.64 2.26h-72c-2.56 0-4.64-1.01-4.64-2.26s2.08-2.26 4.64-2.26h7.93c2.56 0 4.64-1.01 4.64-2.26s-2.08-2.26-4.64-2.26h-37.7c-2.56 0-4.64-1.01-4.64-2.26s2.08-2.26 4.64-2.26h60.7z"/>
		<path id="path-7_112_" fill="#FF3A2F" d="m196 15.2h4.77c0.92 0 1.67 0.744 1.67 1.66 0 0.918-0.747 1.66-1.67 1.66h-0.222c-0.92 0-1.67 0.744-1.67 1.66 0 0.918 0.746 1.66 1.67 1.66h10.3c0.921 0 1.67 0.744 1.67 1.66 0 0.918-0.746 1.66-1.67 1.66h-25.8c-0.92 0-1.67-0.743-1.67-1.66s0.746-1.66 1.67-1.66h2.85c0.92 0 1.67-0.744 1.67-1.66 0-0.918-0.746-1.66-1.67-1.66h-13.6c-0.92 0-1.67-0.743-1.67-1.66 0-0.918 0.746-1.66 1.67-1.66h21.2z"/>
		<path id="path-8_109_" fill="#FBB713" d="m128 92.1h26.1c5.03 0 9.11 2.32 9.11 5.19s-4.08 5.19-9.11 5.19h-1.22c-5.03 0-9.11 2.32-9.11 5.19s4.08 5.19 9.11 5.19h56.1c5.03 0 9.11 2.32 9.11 5.19s-4.08 5.19-9.11 5.19h-142c-5.03 0-9.11-2.33-9.11-5.19 0-2.87 4.08-5.19 9.11-5.19h15.6c5.03 0 9.11-2.32 9.11-5.19s-4.08-5.19-9.11-5.19h-74.2c-5.03 0-9.11-2.32-9.11-5.19s4.08-5.19 9.11-5.19h118z"/>
	</g>
</svg>
