<?xml version="1.0" encoding="iso-8859-1"?>
<!-- Generator: Adobe Illustrator 19.1.0, SVG Export Plug-In . SVG Version: 6.00 Build 0)  -->
<svg version="1.1" id="Capa_1" xmlns="http://www.w3.org/2000/svg" xmlns:xlink="http://www.w3.org/1999/xlink" x="0px" y="0px"
	 viewBox="0 0 218.332 218.332" style="enable-background:new 0 0 218.332 218.332;" xml:space="preserve">
<g>
	<g id="group-50svg">
		<path id="path-1_114_" style="fill:#2476FF;" d="M175.059,43.239c36.885,36.541,36.885,95.993,0,132.533
			c-36.886,36.54-96.9,36.54-133.784,0c-2.788-2.761-5.534-5.924-8.401-9.682c-0.921-1.208-1.099-2.811-0.469-4.184
			c0.635-1.366,1.974-2.284,3.49-2.391c20.858-1.4,40.433-10.193,55.128-24.75c30.333-30.05,33.629-78.245,7.656-112.104
			c-0.928-1.201-1.104-2.806-0.475-4.178c0.63-1.383,1.968-2.301,3.49-2.403C129.041,14.248,155.786,24.146,175.059,43.239z"/>
		<path id="path-2_114_" style="opacity:0.25;fill:#020403;enable-background:new    ;" d="M175.059,43.239
			c-3.011-2.983-6.222-5.712-9.572-8.237c31.929,36.778,30.33,92.459-4.85,127.311c-25.714,25.473-64.795,39.761-97.318,29.717
			c12.67,7.424,29.731,9.952,35.263,10.659c27.311,2.731,55.598-6.234,76.477-26.917C211.944,139.231,211.944,79.78,175.059,43.239z
			"/>
		<path id="path-3_114_" style="opacity:0.35;fill:#020403;enable-background:new    ;" d="M199.572,133.48
			c0.91-3.426,1.643-6.891,2.155-10.383h-31.425c-5.033,0-9.113-2.324-9.113-5.191s4.08-5.191,9.113-5.191h1.215
			c5.033,0,9.113-2.324,9.113-5.191c0-2.868-4.08-5.192-9.113-5.192h-26.104h-33.968c-1.383,3.989-3.136,7.864-5.121,11.642
			c1.956,0.952,3.223,2.35,3.223,3.932c0,2.786-3.862,5.042-8.699,5.167c-2.554,3.656-5.461,7.122-8.645,10.407h66.778H199.572z"/>
		<path id="path-4_113_" style="fill:#FBB713;" d="M91.95,148.176c7.853,0,14.22-1.355,14.22-3.027c0-1.671-6.367-3.026-14.22-3.026
			H48.376c-7.853,0-14.218,1.355-14.218,3.026c0,1.672,6.365,3.027,14.218,3.027H91.95z"/>
		<path id="path-5_113_" style="fill:#2476FF;" d="M57.368,31.729c3.287,0,5.951-0.778,5.951-1.735c0-0.958-2.664-1.734-5.951-1.734
			H39.135c-3.286,0-5.95,0.776-5.95,1.734c0,0.957,2.664,1.735,5.95,1.735H57.368z"/>
		<path id="path-6_112_" style="fill:#FF3A2F;" d="M122.928,60.987h13.288c2.562,0,4.639,1.009,4.639,2.255
			c0,1.245-2.077,2.255-4.639,2.255h-0.618c-2.562,0-4.639,1.01-4.639,2.256c0,1.246,2.077,2.256,4.639,2.256h28.565
			c2.562,0,4.639,1.009,4.639,2.255c0,1.246-2.077,2.255-4.639,2.255h-34.328h-37.73c-2.562,0-4.64-1.009-4.64-2.255
			c0-1.246,2.078-2.255,4.64-2.255h7.927c2.563,0,4.639-1.01,4.639-2.256c0-1.246-2.076-2.256-4.639-2.256h-37.73
			c-2.562,0-4.639-1.01-4.639-2.255c0-1.246,2.077-2.255,4.639-2.255h8.917H122.928z"/>
		<path id="path-7_112_" style="fill:#FF3A2F;" d="M196.204,15.156h4.772c0.92,0,1.667,0.744,1.667,1.662
			c0,0.918-0.747,1.661-1.667,1.661h-0.222c-0.92,0-1.666,0.744-1.666,1.662c0,0.918,0.746,1.662,1.666,1.662h10.258
			c0.921,0,1.667,0.744,1.667,1.661c0,0.918-0.746,1.661-1.667,1.661h-12.328h-13.549c-0.92,0-1.666-0.743-1.666-1.661
			c0-0.917,0.746-1.661,1.666-1.661h2.847c0.92,0,1.666-0.744,1.666-1.662c0-0.918-0.746-1.662-1.666-1.662h-13.55
			c-0.92,0-1.666-0.743-1.666-1.661c0-0.918,0.746-1.662,1.666-1.662h3.202H196.204z"/>
		<path id="path-8_109_" style="fill:#FBB713;" d="M128.213,92.109h26.104c5.033,0,9.113,2.324,9.113,5.191
			c0,2.867-4.08,5.192-9.113,5.192h-1.215c-5.033,0-9.113,2.324-9.113,5.191c0,2.868,4.08,5.192,9.113,5.192h56.116
			c5.034,0,9.114,2.324,9.114,5.192c0,2.866-4.08,5.192-9.114,5.192h-67.437H67.66c-5.033,0-9.114-2.326-9.114-5.192
			c0-2.868,4.081-5.192,9.114-5.192h15.574c5.033,0,9.113-2.324,9.113-5.192c0-2.867-4.08-5.191-9.113-5.191H9.113
			c-5.034,0-9.113-2.325-9.113-5.192c0-2.867,4.079-5.191,9.113-5.191h17.518H128.213z"/>
	</g>
</g>
<g>
</g>
<g>
</g>
<g>
</g>
<g>
</g>
<g>
</g>
<g>
</g>
<g>
</g>
<g>
</g>
<g>
</g>
<g>
</g>
<g>
</g>
<g>
</g>
<g>
</g>
<g>
</g>
<g>
</g>
</svg>
