<?xml version="1.0" encoding="UTF-8" standalone="no"?>
<!DOCTYPE svg  PUBLIC '-//W3C//DTD SVG 1.1//EN'  'http://www.w3.org/Graphics/SVG/1.1/DTD/svg11.dtd'>
<svg style="enable-background:new 0 0 328.863 328.863" xmlns="http://www.w3.org/2000/svg" xml:space="preserve" viewBox="0 0 328.863 328.863" height="512px" width="512px" version="1.1" y="0px" x="0px" xmlns:xlink="http://www.w3.org/1999/xlink">
<g id="_x34_4-18Plus_movie">
		<path d="m104 220v-89h-20.6v-23h49.1v112h-28z" fill="#009621"/>
		<path d="m240 137c0 9.76-5.28 18.4-14.1 23.2 12.3 5.12 20 15.8 20 28.3 0 20.2-17.9 33-45.9 33s-45.9-12.6-45.9-32.5c0-12.8 8.32-23.7 21.3-28.8-9.44-5.28-15.5-14.2-15.5-24 0-17.9 15.7-29.3 40-29.3 24 1 40 13 40 31zm-59 49c0 9.44 6.72 14.7 19 14.7s19.2-5.12 19.2-14.7c0-9.28-6.88-14.6-19.2-14.6-13 1-19 6-19 15zm2-47c0 8 5.76 12.5 16.2 12.5s16.2-4.48 16.2-12.5c0-8.32-5.76-13-16.2-13-10-1-16 4-16 12z" fill="#009621"/>
		<path d="m293 121c4.74 14 7.14 28.6 7.14 43.5 0 74.8-60.8 136-136 136s-135-61-135-136c0-74.8 60.8-136 136-136 14.9 0 29.5 2.4 43.5 7.14v-29.3c-14-3.84-29-5.8-44-5.8-90.2 0-164 73.8-164 164s73.8 164 164 164 165-73 165-164c0-14.8-1.96-29.4-5.83-43.5h-30z" fill="#009621"/>
		<polygon points="285 44.1 285 12.6 262 12.6 262 44.1 231 44.1 231 66.8 262 66.8 262 98.3 285 98.3 285 66.8 316 66.8 316 44.1" fill="#009621"/>
</g>
</svg>
