<?xml version="1.0" encoding="UTF-8"?>
<svg enable-background="new 0 0 45 45" version="1.1" viewBox="0 0 45 45" xml:space="preserve" xmlns="http://www.w3.org/2000/svg" xmlns:cc="http://creativecommons.org/ns#" xmlns:dc="http://purl.org/dc/elements/1.1/" xmlns:rdf="http://www.w3.org/1999/02/22-rdf-syntax-ns#"><metadata><rdf:RDF><cc:Work rdf:about=""><dc:format>image/svg+xml</dc:format><dc:type rdf:resource="http://purl.org/dc/dcmitype/StillImage"/></cc:Work></rdf:RDF></metadata><defs><clipPath id="a"><path d="m0 36h36v-36h-36v36z"/></clipPath></defs><g transform="matrix(1.25,0,0,-1.25,0,45)"><g clip-path="url(#a)"><g transform="translate(5.1227,31)"><path d="m0 0h6c1.105 0 1.877 0.104 1.877-1v2c0 1.104-0.772 2-1.877 2h-8c-2 0-3.583-2.125-3-5 0 0 1.791-9.376 1.917-9.958 0.333-1.543 2.125-3.042 4.042-3.042h6.958c1.104 0-0.04 1.896-0.04 3v2c0-1.104-0.772-2-1.877-2h-4c-1.104 0-1.833 1.042-2 2-0.166 0.958-1.583 7.333-1.583 7.333-0.333 1.917 0.479 2.667 1.583 2.667" fill="#ffac33"/></g><g transform="translate(30.935 31)"><path d="m0 0h-6c-1.104 0-2.935 0.104-2.935-1v2c0 1.104 1.831 2 2.935 2h8c2 0 3.584-2.125 3-5 0 0-1.633-9.419-1.77-10-0.355-1.5-2.043-3-4-3h-7.146c-1.105 0-1.019 1.896-1.019 3v2c0-1.104 1.831-2 2.935-2h4c1.105 0 1.834 1.042 2 2s1.584 7.333 1.584 7.333c0.332 1.917-0.479 2.667-1.584 2.667" fill="#ffac33"/></g><g transform="translate(20.832 14)"><path d="m0 0c0 6.958-2.709 0-2.709 0s-3 6.958-3 0-3.291-10-3.291-10h6.291 6s-3.291 3.042-3.291 10" fill="#ffac33"/></g><g transform="translate(29.123 29.423)"><path d="m0 0c0-6.775-6.77-18.192-11-18.192-4.231 0-11 11.417-11 18.192 0 5.195 1 6.319 3 6.319 1.374 0 6.025 0.027 8 0.027 1.391 0 5.914 2e-3 7 2e-3 2.917 0 4-0.685 4-6.348" fill="#ffcc4d"/></g><g transform="translate(27,3)"><path d="m0 0c0-1.105 0.227-2-0.877-2h-16c-1.105 0-1.123 0.895-1.123 2v1c0 1.105 1.164 2 2.206 2h13.917c1.042 0 1.877-0.895 1.877-2v-1z" fill="#c1694f"/></g><g transform="translate(29,1.375)"><path d="m0 0c0-0.76 0.165-1.375-1.252-1.375h-19.25c-1.292 0-1.498 0.615-1.498 1.375v0.25c0 0.76 0.738 1.375 1.498 1.375h19.25c0.759 0 1.252-0.615 1.252-1.375v-0.25z" fill="#c1694f"/></g></g></g></svg>
