<?xml version="1.0" encoding="UTF-8" standalone="no"?>
<svg xmlns:rdf="http://www.w3.org/1999/02/22-rdf-syntax-ns#" style="enable-background:new 0 0 45 45" xmlns="http://www.w3.org/2000/svg" xml:space="preserve" version="1.1" xmlns:cc="http://creativecommons.org/ns#" viewBox="0 0 45 45" xmlns:dc="http://purl.org/dc/elements/1.1/"><defs><clipPath id="a" clipPathUnits="userSpaceOnUse"><path d="m0 36h36v-36h-36v36z"/></clipPath></defs><g transform="matrix(1.25,0,0,-1.25,0,45)"><g clip-path="url(#a)"><g transform="translate(17.4 2.9)"><path d="m0 0c-0.097 0.18-0.249 0.302-0.417 0.391-1.6 1.71-0.463 3.71-0.463 3.71 0 0.552 1 2 0 2l-1-1c-1-1-1-4-1-4h-2c-0.553 0-1-0.448-1-1 0-0.553 0.447-1 1-1h1.11l-0.222-0.12c-0.486-0.263-0.667-0.87-0.404-1.36 0.262-0.486 0.869-0.667 1.36-0.404l2.64 1.43c0.472 0.26 0.653 0.864 0.39 1.35" fill="#ffac33"/></g><g transform="translate(23.5,4)"><path d="m0 0h-2s0 3-1 4l-1 1c-1 0 0-1.45 0-2 0 0 1.14-2-0.462-3.71-0.168-0.089-0.32-0.211-0.418-0.391-0.263-0.486-0.082-1.09 0.404-1.36l2.64-1.43c0.486-0.263 1.09-0.082 1.36 0.404 0.262 0.487 0.082 1.09-0.405 1.36l-0.225 0.13h1.11c0.553 0 1 0.447 1 1s-0.447 1-1 1" fill="#ffac33"/></g><g transform="translate(34,12)"><path d="m0 0c-1 2-3 5-4 10h-0.008c0.001 0.052 0.008 0.102 0.008 0.154 0 5.94-4.32 10.9-10 11.8 1.19 0.259 2.03 0.508 0.996 1.03-1.12 0.558-2.23-0.129-3-0.846h-0.001-0.001c-0.8 0.7-1.9 1.4-3 0.8-1-0.5-0.2-0.8 1-1-5.7-1-10-5.9-10-11.8v-0.2c-1-5-3-8-4-10-0.447-0.895 0-3 2-2 1.19 0.596 2.38 1.91 3.36 3.72 1.5-4.66 4.7-8.72 10.6-8.72 5.93 0 9.1 4.06 10.6 8.72 1.02-1.81 2.21-3.12 3.4-3.72 2-1 2.45 1.1 2 2" fill="#ffcc4d"/></g><g transform="translate(21,22)"><path d="m0 0c0-1.66-1.34-2-3-2s-3 0.343-3 2 1.34 3 3 3 3-1.34 3-3" fill="#f4900c"/></g><g transform="translate(13,24.5)"><path d="m0 0c0-0.829-0.671-1.5-1.5-1.5-0.83 0-1.5 0.671-1.5 1.5s0.67 1.5 1.5 1.5c0.829 0 1.5-0.671 1.5-1.5" fill="#662113"/></g><g transform="translate(26,24.5)"><path d="m0 0c0-0.829-0.672-1.5-1.5-1.5-0.83 0-1.5 0.671-1.5 1.5s0.67 1.5 1.5 1.5c0.828 0 1.5-0.671 1.5-1.5" fill="#662113"/></g></g></g></svg>
