<?xml version="1.0" encoding="UTF-8"?>
<svg enable-background="new 0 0 45 45" version="1.1" viewBox="0 0 45 45" xml:space="preserve" xmlns="http://www.w3.org/2000/svg" xmlns:cc="http://creativecommons.org/ns#" xmlns:dc="http://purl.org/dc/elements/1.1/" xmlns:rdf="http://www.w3.org/1999/02/22-rdf-syntax-ns#"><metadata><rdf:RDF><cc:Work rdf:about=""><dc:format>image/svg+xml</dc:format><dc:type rdf:resource="http://purl.org/dc/dcmitype/StillImage"/></cc:Work></rdf:RDF></metadata><defs><clipPath id="a"><path d="m0 36h36v-36h-36v36z"/></clipPath></defs><g transform="matrix(1.25,0,0,-1.25,0,45)"><g clip-path="url(#a)"><g transform="translate(7 13.734)"><path d="m0 0s-8e-3 -1e-3 -0.01-1e-3c3e-3 -1e-3 7e-3 -2e-3 0.01-3e-3v4e-3z" fill="#ffcc4d"/></g><g transform="translate(29.062 13.73)"><path d="m0 0c4e-3 1e-3 7e-3 2e-3 0.01 3e-3 -2e-3 0-0.01 1e-3 -0.01 1e-3v-4e-3z" fill="#ffcc4d"/></g><g transform="translate(35.905 16.387)"><path d="m0 0c-1.774-1.072-3.839-1.978-6.833-2.653 0.017-2e-3 0.082-9e-3 0.046-0.02-0.268-0.068-0.411-0.135-0.687-0.197-1.046-0.204-2.587-0.296-2.08 1.095l2.131 2.906 0.518-0.518 4.5 4.5-4.5 4.5-4.5-4.5 2.55-2.551-2.22-3.029-2e-3 2e-3c-1.672-2-4.781-1.328-4.781 1.078h-0.047v6l5.5 5.5-7.5 7.5-7.5-7.5 5.5-5.5v-6.19c-0.164-2.246-3.14-2.832-4.766-0.888l-2e-3 -2e-3 -2.247 3.065 2.515 2.515-4.5 4.5-4.5-4.5 4.5-4.5 0.553 0.554 2.158-2.942c0.507-1.391-1.035-1.299-2.081-1.095-0.274 0.062-0.418 0.129-0.686 0.197-0.036 0.011 0.028 0.018 0.045 0.02-2.994 0.675-5.058 1.581-6.832 2.653-8e-3 -0.151-0.095-0.301-0.095-0.455 0-3.482 6.245-10.923 14.623-12.586l3.315-3.33 3.345 3.33c8.379 1.663 14.655 9.104 14.655 12.586 0 0.154-0.087 0.304-0.095 0.455" fill="#ffcc4d"/></g></g></g></svg>
