<?xml version="1.0" encoding="UTF-8" standalone="no"?>
<svg xmlns:rdf="http://www.w3.org/1999/02/22-rdf-syntax-ns#" style="enable-background:new 0 0 45 45" xmlns="http://www.w3.org/2000/svg" xml:space="preserve" version="1.1" xmlns:cc="http://creativecommons.org/ns#" viewBox="0 0 45 45" xmlns:dc="http://purl.org/dc/elements/1.1/"><defs><clipPath id="a" clipPathUnits="userSpaceOnUse"><path d="m0 36h36v-36h-36v36z"/></clipPath></defs><g transform="matrix(1.25,0,0,-1.25,0,45)"><g clip-path="url(#a)"><g transform="translate(27.4)"><path d="m0 0c-0.433 12.6-2.98 23.7-11.8 23.7-8.8 0-11.4-11.1-11.8-23.7h23.6z" fill="#292f33"/></g><g transform="translate(9.07)"><path d="m0 0c-0.707 5.9-2.24 10-4.04 10-1.78 0-3.32-4.1-4.03-10h8.07z" fill="#292f33"/></g><g transform="translate(32)"><path d="m0 0c-0.794 5.9-2.52 10-4.53 10-2.02 0-3.75-4.1-4.54-10h9.07z" fill="#292f33"/></g><g transform="translate(27.5 12.3)"><path d="m0 0c-3.92 11.2 0.535 20.7-10.5 20.7s-8.74-8.17-13.2-19.1c-1.12-2.75 1.44-5.91 1.44-5.91s2.61 4.76 4.75 5.85c0.591-3.28 1.75-6.94 1.75-6.94s4.92 5.66 9.08 8.25c1.15-1.54 4.92-7.5 4.92-7.5s2.51 2.44 1.72 4.69" fill="#e1e8ed"/></g><g transform="translate(23,31)"><path d="m0 0c4.36-3.06 5.54-2.16 7.81-3.56 2.13-1.32 2-4.94 0.13-8.04-0.58 2.64 0.5 3.12-6.94 3.12-5 0-7.93-0.289-7 1s10-0.45 6 7.48" fill="#ffcc4d"/></g><g transform="translate(20.9 28.5)"><path d="m0 0c0-0.82-0.664-1.48-1.48-1.48-0.821 0-1.48 0.663-1.48 1.48 0 0.82 0.662 1.48 1.48 1.48 0.816 0 1.48-0.66 1.48-1.48" fill="#292f33"/></g><path d="m22 28.9h-5v2h5v-2z" fill="#e1e8ed"/><g transform="translate(15 16)"><path d="m0 0s1-3 6-7c1 3 4 8 4 8l-10-1z" fill="#e1e8ed"/></g></g></g></svg>
