<?xml version="1.0" encoding="UTF-8"?>
<svg enable-background="new 0 0 45 45" version="1.1" viewBox="0 0 45 45" xml:space="preserve" xmlns="http://www.w3.org/2000/svg" xmlns:cc="http://creativecommons.org/ns#" xmlns:dc="http://purl.org/dc/elements/1.1/" xmlns:rdf="http://www.w3.org/1999/02/22-rdf-syntax-ns#"><metadata><rdf:RDF><cc:Work rdf:about=""><dc:format>image/svg+xml</dc:format><dc:type rdf:resource="http://purl.org/dc/dcmitype/StillImage"/></cc:Work></rdf:RDF></metadata><defs><clipPath id="c"><path d="m0 36h36v-36h-36v36z"/></clipPath><clipPath id="b"><path d="m30 35-23.001-23 5.001-5l23 23v5h-5z"/></clipPath><clipPath id="a"><path d="m0 36h36v-36h-36v36z"/></clipPath></defs><g transform="matrix(1.25,0,0,-1.25,0,45)"><g transform="translate(24,7)"><path d="m0 0 5 5-23 23h-5v-5l23-23z" fill="#ccd6dd"/></g><g transform="translate(.9999 35)"><path d="m0 0v-5l23-23 2.5 2.5-25.5 25.5z" fill="#9aaab4"/></g><g clip-path="url(#c)"><g transform="translate(32.143 1.9717)"><path d="m0 0c0.781-0.781 1.836-0.992 2.357-0.472 0.521 0.521 0.31 1.576-0.471 2.358l-5.186 6.128c-0.78 0.781-1.837 0.992-2.356 0.471l-0.944-0.942c-0.52-0.522-0.309-1.576 0.472-2.357l6.128-5.186z" fill="#642116"/></g><g transform="translate(22.478 5.7432)"><path d="m0 0c0.586-0.586 1.536-0.586 2.121 0l5.658 5.656c0.586 0.586 0.585 1.536 0 2.122-0.586 0.585-1.536 0.586-2.122 0l-5.657-5.657c-0.585-0.586-0.585-1.536 0-2.121" fill="#bf6952"/></g><g transform="translate(31.318 .4395)"><path d="m0 0c0.585-0.586 1.535-0.586 2.121 0l2.121 2.121c0.586 0.586 0.586 1.536 0 2.122-0.586 0.585-1.535 0.586-2.121 0l-2.121-2.122c-0.586-0.585-0.586-1.535 0-2.121" fill="#fcab40"/></g><g transform="translate(12 7)"><path d="m0 0-5 5 23.001 23h5v-5l-23.001-23z" fill="#ccd6dd"/></g></g><g clip-path="url(#b)"><g transform="translate(7.1572,7.1572)"><path d="M 0,0 3.535,-3.536 32.526,25.456 28.991,28.991 0,0 Z" fill="#9aaab4"/></g></g><g clip-path="url(#a)"><g transform="translate(3.8574,1.9717)"><path d="m0 0c-0.781-0.781-1.836-0.992-2.357-0.472-0.521 0.521-0.31 1.576 0.471 2.358l5.186 6.128c0.781 0.781 1.836 0.992 2.357 0.471l0.942-0.942c0.521-0.522 0.31-1.576-0.471-2.357l-6.128-5.186z" fill="#642116"/></g><g transform="translate(13.521,5.7432)"><path d="m0 0c-0.585-0.586-1.536-0.586-2.121 0l-5.657 5.656c-0.586 0.586-0.586 1.536 0 2.122 0.586 0.585 1.535 0.586 2.121 0l5.657-5.657c0.585-0.586 0.585-1.536 0-2.121" fill="#bf6952"/></g><g transform="translate(4.6821 .4395)"><path d="m0 0c-0.585-0.586-1.536-0.586-2.121 0l-2.122 2.121c-0.586 0.586-0.585 1.536 0 2.122 0.586 0.585 1.536 0.586 2.122 0l2.121-2.122c0.585-0.585 0.585-1.535 0-2.121" fill="#fcab40"/></g></g></g></svg>
