<?xml version="1.0" encoding="UTF-8" standalone="no"?>
<svg xmlns:rdf="http://www.w3.org/1999/02/22-rdf-syntax-ns#" style="enable-background:new 0 0 45 45" xmlns="http://www.w3.org/2000/svg" xml:space="preserve" version="1.1" xmlns:cc="http://creativecommons.org/ns#" viewBox="0 0 45 45" xmlns:dc="http://purl.org/dc/elements/1.1/"><defs><clipPath id="a" clipPathUnits="userSpaceOnUse"><path d="m0 36h36v-36h-36v36z"/></clipPath></defs><g transform="matrix(1.25,0,0,-1.25,0,45)"><g clip-path="url(#a)"><g transform="translate(23.1 32.6)"><path d="m0 0c-1.65 1.5-3.43 2.4-5.14 2.4-5.62 0-12-9.61-12-19 0-0.975 0.079-1.9 0.201-2.79 1.06-7.69 6.42-12.2 11.8-12.2 6 0 12 5.61 12 15-0.04 6.5-3.13 13.2-6.9 16.6" fill="#f7dece"/></g><g transform="translate(23.1 32.6)"><path d="m0 0c2.91-3.52 5.11-9.02 5.11-14.5 0-9.01-5.67-14.4-11.3-14.4-4.54 0-9.08 3.46-10.7 9.46 1.06-7.69 6.42-12.2 11.8-12.2 6 0 12 5.61 12 15-0.04 6.5-3.13 13.2-6.9 16.6" fill="#e0aa94"/></g></g></g></svg>
