<?xml version="1.0" encoding="UTF-8"?>
<svg enable-background="new 0 0 45 45" version="1.1" viewBox="0 0 45 45" xml:space="preserve" xmlns="http://www.w3.org/2000/svg" xmlns:cc="http://creativecommons.org/ns#" xmlns:dc="http://purl.org/dc/elements/1.1/" xmlns:rdf="http://www.w3.org/1999/02/22-rdf-syntax-ns#"><metadata><rdf:RDF><cc:Work rdf:about=""><dc:format>image/svg+xml</dc:format><dc:type rdf:resource="http://purl.org/dc/dcmitype/StillImage"/></cc:Work></rdf:RDF></metadata><defs><clipPath id="a"><path d="m0 36h36v-36h-36v36z"/></clipPath></defs><g transform="matrix(1.25,0,0,-1.25,0,45)"><g clip-path="url(#a)"><g transform="translate(17)"><path d="m0 0c-0.512 0-1.024 0.195-1.414 0.586l-11 11c-0.375 0.375-0.586 0.884-0.586 1.414v21c0 0.809 0.487 1.538 1.235 1.848 0.747 0.31 1.608 0.138 2.179-0.434l9.586-9.585 9.586 9.585c0.572 0.573 1.431 0.744 2.18 0.434 0.747-0.31 1.234-1.039 1.234-1.848v-21c0-0.53-0.211-1.039-0.586-1.414l-11-11c-0.39-0.391-0.902-0.586-1.414-0.586" fill="#66757f"/></g><g transform="translate(17,23)"><path d="m0 0 11 11v-21l-11-11v21z" fill="#47ded4"/></g><g transform="translate(6,34)"><path d="m0 0 11-11v-21l-11 11v21z" fill="#ffff87"/></g></g></g></svg>
