<?xml version="1.0" encoding="UTF-8" standalone="no"?>
<svg xmlns:rdf="http://www.w3.org/1999/02/22-rdf-syntax-ns#" style="enable-background:new 0 0 45 45" xmlns="http://www.w3.org/2000/svg" xml:space="preserve" version="1.1" xmlns:cc="http://creativecommons.org/ns#" viewBox="0 0 45 45" xmlns:dc="http://purl.org/dc/elements/1.1/"><defs><clipPath id="a" clipPathUnits="userSpaceOnUse"><path d="m0 36h36v-36h-36v36z"/></clipPath></defs><g transform="matrix(1.25,0,0,-1.25,0,45)"><g clip-path="url(#a)"><g transform="translate(7.32 25)"><path d="m0 0c-5.72-9.08 0.958-18 0.958-18s2.88 0.442 6.88 5.2c3.96 4.76-7.84 12.8-7.84 12.8" fill="#662113"/></g><g transform="translate(28.7 25)"><path d="m0 0c5.72-9.08-0.958-18-0.958-18s-2.87 0.442-6.88 5.2c-3.96 4.76 7.84 12.8 7.84 12.8" fill="#662113"/></g><g transform="translate(15.2 4.44)"><path d="m0 0c-0.123 0.229-0.317 0.384-0.531 0.496-2.03 2.17-0.589 4.72-0.589 4.72 0 0.703 1.27 2.54 0 2.54l-1.27-1.28c-1.27-1.27-1.27-5.08-1.27-5.08h-2.54c-0.703 0-1.27-0.569-1.27-1.27s0.569-1.27 1.27-1.27h1.41l-0.282-0.154c-0.63-0.35-0.86-1.12-0.53-1.74 0.34-0.61 1.11-0.84 1.73-0.51l3.36 1.82c0.614 0.33 0.842 1.1 0.51 1.72" fill="#ffac33"/></g><g transform="translate(20.8 4.44)"><path d="m0 0c0.123 0.229 0.317 0.384 0.53 0.496 2.03 2.17 0.589 4.72 0.589 4.72 0 0.703-1.27 2.54 0 2.54l1.27-1.28c1.27-1.27 1.27-5.08 1.27-5.08h2.54c0.704 0 1.27-0.569 1.27-1.27s-0.567-1.27-1.27-1.27h-1.41l0.281-0.154c0.63-0.35 0.86-1.12 0.53-1.74-0.34-0.61-1.11-0.84-1.73-0.51l-3.36 1.82c-0.614 0.33-0.843 1.1-0.51 1.72" fill="#ffac33"/></g><g transform="translate(28.3 24.7)"><path d="m0 0c2.89 6.09 0 10.5 0 10.5s-5.78-0.959-6.74-2.88c-1.22-2.38 6.74-7.62 6.74-7.62" fill="#662113"/></g><g transform="translate(29.6 23.3)"><path d="m0 0c0-10.3-3.15-20.6-11.6-20.6-8.41 0-11.6 10.3-11.6 20.6s5.18 10.7 11.6 10.7 11.6-0.4 11.6-10.7" fill="#662113"/></g><g transform="translate(27.7 18.3)"><path d="m0 0c0-10.3-7.77-14.6-9.67-14.6-1.89 0-9.67 4.3-9.67 14.6s19.3 10.3 19.3 0" fill="#c1694f"/></g><g transform="translate(7.72 24.7)"><path d="m0 0c-2.89 6.09 0 10.5 0 10.5s5.78-0.959 6.75-2.88c1.21-2.38-6.75-7.62-6.75-7.62" fill="#662113"/></g><g transform="translate(14.9 31.6)"><path d="m0 0c-4.23 1.58-7.21 3.62-7.21 3.62s-2.08-3.22-0.927-7.93c0.446-2.14 1.94-4.2 3.9-4.66 2.64-0.627 7.3 0.049 7.3 3.96 0.01 2.7-1.06 4.26-3.06 5.01" fill="#c1694f"/></g><g transform="translate(21.1 31.6)"><path d="m0 0c4.23 1.58 7.21 3.62 7.21 3.62s2.08-3.22 0.928-7.93c-0.446-2.14-1.94-4.2-3.9-4.66-2.64-0.627-7.3 0.049-7.3 3.96 0 2.7 1.07 4.25 3.07 5" fill="#c1694f"/></g><g transform="translate(16.1 27.6)"><path d="m0 0c0-2.12-1.72-3.83-3.83-3.83-2.12 0-3.83 1.72-3.83 3.83 0 2.12 1.72 3.83 3.83 3.83s3.83-1.71 3.83-3.83" fill="#ffd983"/></g><g transform="translate(27.6 27.6)"><path d="m0 0c0-2.12-1.72-3.83-3.83-3.83-2.12 0-3.83 1.72-3.83 3.83 0 2.12 1.72 3.83 3.83 3.83s3.83-1.71 3.83-3.83" fill="#ffd983"/></g><g transform="translate(14.2 27.6)"><path d="m0 0c0-1.06-0.858-1.92-1.92-1.92s-1.92 0.858-1.92 1.92 0.858 1.92 1.92 1.92 1.92-0.86 1.92-1.92" fill="#292f33"/></g><g transform="translate(25.7 27.6)"><path d="m0 0c0-1.06-0.858-1.92-1.92-1.92s-1.92 0.858-1.92 1.92 0.858 1.92 1.92 1.92 1.92-0.86 1.92-1.92" fill="#292f33"/></g><g transform="translate(20.9 23.3)"><path d="m0 0c0-2.38-2.88-3.35-2.88-3.35s-2.88 0.972-2.88 3.35 2.88 3.35 2.88 3.35 2.88-0.97 2.88-3.35" fill="#ffcc4d"/></g><g transform="translate(20.9 23.3)"><path d="m0 0c0-2.38-2.88-3.35-2.88-3.35s-2.88 0.972-2.88 3.35c1.2-1.2 2.88-1.44 2.88-1.44s1.68 0.239 2.88 1.44" fill="#f4900c"/></g></g></g></svg>
