<?xml version="1.0" encoding="UTF-8"?>
<svg enable-background="new 0 0 45 45" version="1.1" viewBox="0 0 45 45" xml:space="preserve" xmlns="http://www.w3.org/2000/svg" xmlns:cc="http://creativecommons.org/ns#" xmlns:dc="http://purl.org/dc/elements/1.1/" xmlns:rdf="http://www.w3.org/1999/02/22-rdf-syntax-ns#"><metadata><rdf:RDF><cc:Work rdf:about=""><dc:format>image/svg+xml</dc:format><dc:type rdf:resource="http://purl.org/dc/dcmitype/StillImage"/></cc:Work></rdf:RDF></metadata><defs><clipPath id="a"><path d="m0 36h36v-36h-36v36z"/></clipPath></defs><g transform="matrix(1.25,0,0,-1.25,0,45)"><g clip-path="url(#a)"><g transform="translate(18.935 10.515)"><path d="m0 0c-0.517-0.781-1.353-0.781-1.869 0l-4.678 5.071c-0.517 0.782-0.517 2.048 0 2.829l4.678 9.071c0.516 0.781 1.352 0.781 1.869 0l4.678-9.071c0.516-0.781 0.516-2.047 0-2.829l-4.678-5.071z" fill="#f4900c"/></g><g transform="translate(28.435 8.5146)"><path d="m0 0c-0.517-0.781-1.353-0.781-1.869 0l-4.678 5.071c-0.517 0.782-0.517 2.047 0 2.829l6.678 9.071c0.516 0.781 1.352 0.781 1.869 0l2.678-9.071c0.516-0.782 0.516-2.047 0-2.829l-4.678-5.071z" fill="#f4900c"/></g><g transform="translate(9.4351,8.5146)"><path d="m0 0c-0.517-0.781-1.354-0.781-1.871 0l-4.677 5.071c-0.516 0.782-0.516 2.047 0 2.829l2.677 9.071c0.517 0.781 1.354 0.781 1.871 0l6.678-9.071c0.516-0.782 0.516-2.047 0-2.829l-4.678-5.071z" fill="#f4900c"/></g><g transform="translate(33,25)"><path d="m0 0c-0.45-0.45-2.12-2.124-4-4.369l-4.565 8.854c-0.517 0.781-1.353 0.781-1.87 0l-4.565-8.853-4.565 8.853c-0.516 0.781-1.354 0.781-1.871 0l-4.564-8.853c-1.88 2.245-3.55 3.918-4 4.368-1 1-2.485 0.94-2-1 1-4 1-7 1-12v-2c0-2.209 1.791-4 4-4h24c2.209 0 4 1.791 4 4v2c0 5 0 8 1 12 0.484 1.94-1 2-2 1" fill="#ffcc4d"/></g><g transform="translate(21,14)"><path d="m0 0c0-1.657-1.343-3-3-3s-3 1.343-3 3 1.343 3 3 3 3-1.343 3-3" fill="#5c913b"/></g><g transform="translate(28,14)"><path d="m0 0c0-1.104-0.895-2-2-2-1.104 0-2 0.896-2 2 0 1.105 0.896 2 2 2 1.105 0 2-0.895 2-2" fill="#5c913b"/></g><g transform="translate(35,14)"><path d="m0 0c0-1.104-0.895-2-2-2-1.104 0-2 0.896-2 2 0 1.105 0.896 2 2 2 1.105 0 2-0.895 2-2" fill="#5c913b"/></g><g transform="translate(12,14)"><path d="m0 0c0-1.104-0.895-2-2-2-1.104 0-2 0.896-2 2 0 1.105 0.896 2 2 2 1.105 0 2-0.895 2-2" fill="#5c913b"/></g><g transform="translate(5,14)"><path d="m0 0c0-1.104-0.895-2-2-2-1.104 0-2 0.896-2 2 0 1.105 0.896 2 2 2 1.105 0 2-0.895 2-2" fill="#5c913b"/></g><g transform="translate(34,10)"><path d="m0 0c0-2.209-1.791-4-4-4h-24c-2.209 0-4 1.791-4 4h32z" fill="#ffac33"/></g></g></g></svg>
