<?xml version="1.0" encoding="UTF-8"?>
<svg enable-background="new 0 0 45 45" version="1.1" viewBox="0 0 45 45" xml:space="preserve" xmlns="http://www.w3.org/2000/svg" xmlns:cc="http://creativecommons.org/ns#" xmlns:dc="http://purl.org/dc/elements/1.1/" xmlns:rdf="http://www.w3.org/1999/02/22-rdf-syntax-ns#"><metadata><rdf:RDF><cc:Work rdf:about=""><dc:format>image/svg+xml</dc:format><dc:type rdf:resource="http://purl.org/dc/dcmitype/StillImage"/></cc:Work></rdf:RDF></metadata><defs><clipPath id="c"><path d="m0 36h36v-36h-36v36z"/></clipPath><clipPath id="b"><path d="m11 36c-1.104 0-2-0.895-2-2v-11s0-1 1-2l7-5.444v-0.556c0-0.104-0.104-1 1-1s1 0.896 1 1v0.556l7 5.444c1 1 1 2 1 2v11c0 1.105-0.895 2-2 2h-14z"/></clipPath><clipPath id="a"><path d="m0 36h36v-36h-36v36z"/></clipPath></defs><g transform="matrix(1.25,0,0,-1.25,0,45)"><g clip-path="url(#c)"><g transform="translate(25,36)"><path d="m0 0h-7-7c-1.104 0-2-0.896-2-2v-11s0-1 1-2l7-5.444v-0.556c0-0.104-0.104-1 1-1 1.105 0 1 0.896 1 1v0.556l7 5.444c1 1 1 2 1 2v11c0 1.104-0.895 2-2 2" fill="#55acee"/></g></g><g clip-path="url(#b)"><path d="m24 16h-12v20h12v-20z" fill="#e1e8ed"/><path d="m22 16h-8v20h8v-20z" fill="#dd2e44"/></g><g clip-path="url(#a)"><g transform="translate(22,15.5)"><path d="m0 0c0-0.828-0.672-1.5-1.5-1.5h-5c-0.829 0-1.5 0.672-1.5 1.5s0.671 1.5 1.5 1.5h5c0.828 0 1.5-0.672 1.5-1.5" fill="#ffac33"/></g><g transform="translate(26,8)"><path d="m0 0c0-4.418-3.582-8-8-8-4.419 0-8 3.582-8 8s3.581 8 8 8c4.418 0 8-3.582 8-8" fill="#ffac33"/></g><g transform="translate(24,8)"><path d="m0 0c0-3.314-2.686-6-6-6s-6 2.686-6 6 2.686 6 6 6 6-2.686 6-6" fill="#ffd983"/></g></g></g></svg>
