<?xml version="1.0" encoding="UTF-8" standalone="no"?>
<svg xmlns:rdf="http://www.w3.org/1999/02/22-rdf-syntax-ns#" style="enable-background:new 0 0 45 45" xmlns="http://www.w3.org/2000/svg" xml:space="preserve" version="1.1" xmlns:cc="http://creativecommons.org/ns#" viewBox="0 0 45 45" xmlns:dc="http://purl.org/dc/elements/1.1/"><defs><clipPath id="a" clipPathUnits="userSpaceOnUse"><path d="m0 36h36v-36h-36v36z"/></clipPath></defs><g transform="matrix(1.25,0,0,-1.25,0,45)"><g transform="translate(2.75 16.7)"><path d="m0 0 2.25 3.33 3-3 4 2 3-3 4 6 4-3 3 1 2-3 3 3 2-4-2-7-11-5-11 2-6 6l-0.2 4.7z" fill="#99aab5"/></g><g clip-path="url(#a)"><g transform="translate(30 21.3)"><path d="m0 0c0.021 0.288 0.044 0.574 0.044 0.867 0 5.94-4.32 10.9-10 11.8 1.19 0.259 2.03 0.509 0.996 1.03-1.12 0.558-2.23-0.129-3-0.845h-0.001-0.001c-0.769 0.716-1.88 1.4-3 0.845-1.04-0.517-0.193-0.767 0.996-1.03-5.67-0.955-10-5.88-10-11.8 0-0.293 0.023-0.579 0.044-0.867-0.483-6.6-6.3-16.3 12-16.3s12.5 9.7 12 16.3" fill="#ffcc4d"/></g><g transform="translate(21,22)"><path d="m0 0c0-1.66-1.34-2-3-2s-3 0.343-3 2 1.34 3 3 3 3-1.34 3-3" fill="#f4900c"/></g><g transform="translate(13,24.5)"><path d="m0 0c0-0.829-0.671-1.5-1.5-1.5-0.83 0-1.5 0.671-1.5 1.5s0.67 1.5 1.5 1.5c0.829 0 1.5-0.671 1.5-1.5" fill="#662113"/></g><g transform="translate(26,24.5)"><path d="m0 0c0-0.829-0.672-1.5-1.5-1.5-0.83 0-1.5 0.671-1.5 1.5s0.67 1.5 1.5 1.5c0.828 0 1.5-0.671 1.5-1.5" fill="#662113"/></g><g transform="translate(31,11)"><path d="m0 0-3 1-4-6-3 5-2-2-4 2-3-4-3 6-3-2-3.29 7.76c-0.5-1.34-0.7-2.78-0.7-4.26 0-8.01 7.2-14.5 16-14.5 8.84 0 16 6.49 16 14.5 0 1.24-0.19 2.44-0.52 3.6l-2.48-7.1z" fill="#e1e8ed"/></g></g></g></svg>
