<?xml version="1.0" encoding="UTF-8" standalone="no"?>
<svg xmlns:rdf="http://www.w3.org/1999/02/22-rdf-syntax-ns#" style="enable-background:new 0 0 45 45" xmlns="http://www.w3.org/2000/svg" xml:space="preserve" version="1.1" xmlns:cc="http://creativecommons.org/ns#" viewBox="0 0 45 45" xmlns:dc="http://purl.org/dc/elements/1.1/"><defs><clipPath id="a" clipPathUnits="userSpaceOnUse"><path d="m0 36h36v-36h-36v36z"/></clipPath></defs><g transform="matrix(1.25,0,0,-1.25,0,45)"><g clip-path="url(#a)"><g transform="translate(24.9 2.9)"><path d="m0 0c-0.098 0.18-0.25 0.302-0.418 0.391-1.6 1.71-0.462 3.71-0.462 3.71 0 0.552 1 2 0 2l-1-1c-1-1-1-4-1-4h-2c-0.553 0-1-0.448-1-1 0-0.553 0.447-1 1-1h1.11l-0.222-0.12c-0.486-0.263-0.667-0.87-0.404-1.36 0.262-0.486 0.869-0.667 1.36-0.404l2.64 1.43c0.472 0.26 0.653 0.864 0.39 1.35" fill="#ffac33"/></g><g transform="translate(17.9 2.9)"><path d="m0 0c-0.097 0.18-0.249 0.302-0.417 0.391-1.6 1.71-0.463 3.71-0.463 3.71 0 0.552 1 2 0 2l-1-1c-1-1-1-4-1-4h-2c-0.553 0-1-0.448-1-1 0-0.553 0.447-1 1-1h1.11l-0.222-0.12c-0.486-0.263-0.667-0.87-0.404-1.36 0.262-0.486 0.869-0.667 1.36-0.404l2.64 1.43c0.472 0.26 0.653 0.864 0.39 1.35" fill="#ffac33"/></g><g transform="translate(7.52 26)"><path d="m0 0c0-1.1-1.12-2-2.5-2s-3.5 1-3.5 2 2.12 2 3.5 2 2.5-0.9 2.5-2" fill="#ffac33"/></g><g transform="translate(13.5 34)"><path d="m0 0c-2 1-3-1-3-1s0 3-3 3-3-3-3-3-3 0.938-3-2c0-1.48 1.1-2.41 2.48-2.39v-4.61c0-1 0.264-3-0.736-4s-2.48-4 0.515-4 3 4 3 7c1-1 4-1 4 4 0 0.867-0.213 1.51-0.55 2h1.29c4 0 4 4 2 5" fill="#dd2e44"/></g><g transform="translate(32.5 27)"><path d="m0 0c4-10 0-22-13-22-7.73 0-13 6-14 11-1.18 5.88-1 8-1 12 0 2.74 2.12 4.82 5 4 7-2 5-10 12-10 10 0 8.23 11.9 11 5" fill="#e1e8ed"/></g><g transform="translate(8.52 28)"><path d="m0 0c0-0.552-0.447-1-1-1s-1 0.448-1 1 0.447 1 1 1 1-0.448 1-1" fill="#292f33"/></g></g></g></svg>
