<?xml version="1.0" encoding="UTF-8" standalone="no"?>
<!DOCTYPE svg  PUBLIC '-//W3C//DTD SVG 1.1//EN'  'http://www.w3.org/Graphics/SVG/1.1/DTD/svg11.dtd'>
<svg style="enable-background:new 0 0 284.929 284.929" xmlns="http://www.w3.org/2000/svg" xml:space="preserve" height="512px" viewBox="0 0 284.929 284.929" width="512px" version="1.1" y="0px" x="0px" xmlns:xlink="http://www.w3.org/1999/xlink">
	<path d="m282 195l-133-133c-1.9-1.9-4.09-2.86-6.56-2.86s-4.66 0.953-6.57 2.86l-132 133c-2.05 2-3 4-3 7 0 2.47 0.953 4.66 2.86 6.57l14.3 14.3c1.9 1.9 4.09 2.85 6.57 2.85 2.47 0 4.66-0.951 6.57-2.85l112-112 112 112c1.9 1.9 4.09 2.85 6.56 2.85 2.48 0 4.67-0.951 6.57-2.85l14.3-14.3c1.9-1.9 2.85-4.09 2.85-6.57 0-3-1-5-3-7z" fill="#fff"/>
</svg>
